<svg fill="none" height="26" viewBox="0 0 26 26" width="26" xmlns="http://www.w3.org/2000/svg"><g fill="#151414"><path d="m13.0004 2.1662h-.0108c-5.99085 0-10.83335 4.8425-10.83335 10.8333 0 5.98 4.8425 10.8334 10.83335 10.8225 5.98-.0108 10.8333-4.8533 10.8225-10.8441 0-5.99087-4.8534-10.83337-10.8334-10.83337zm0 19.5-.0108-.0011c-4.78835-.0108-8.66668-3.8892-8.66668-8.6775 0-4.78832 3.87833-8.66665 8.66668-8.66665 4.7775 0 8.6666 3.87833 8.6558 8.66665 0 4.7775-3.8892 8.6667-8.6667 8.6667h-.001z"/><path d="m16.9871 9.01371-.0108-.01083c-.3142-.33584-.78-.44417-1.1917-.27084l-4.5608 1.84166v-.0108c-.2817.1083-.4875.3141-.6067.585l-1.89583 4.615h-.01083c-.14083.3683-.065.78.195 1.0833h.05417l-.01084-.0108c.17334.2491.44417.4116.7475.455.14084 0 .27084-.0325.41163-.0867l4.5609-1.8417h-.0109c.2709-.1191.4767-.325.5959-.5958l1.8958-4.615h-.0011c.1734-.41166.0759-.88832-.2275-1.19166zm-5.2867 5.29749.7692-1.885 1.8308-.7367-.7691 1.885z"/></g></svg>