<svg fill="none" height="26" viewBox="0 0 26 26" width="26" xmlns="http://www.w3.org/2000/svg"><g fill="#151414"><path d="m9.36029 5.66624c-.46584-.39-1.14834-.325-1.5275.13-.01084 0-.01084 0-.01084 0l-5.41666 6.49996h-.01084c-.33583.39-.33583.975 0 1.3759l5.2325 6.5-.01083-.0109c.20583.2492.50917.4009.83417.4009.59583 0 1.08333-.4875 1.08333-1.0834 0-.26-.08667-.4983-.24917-.6933l-4.69083-5.8175 4.85333-5.80666v-.01084c.37917-.46583.31417-1.14833-.14083-1.5275-.01083-.01083-.01083-.01083-.01083-.01083z"/><path d="m23.5954 12.318-5.1784-6.49996c-.3791-.47667-1.0616-.54167-1.5275-.17333-.0108 0-.0108 0-.0108 0v-.01084c-.4767.36834-.5417 1.05084-.1733 1.51667l4.6258 5.81746-4.8533 5.8175h-.0109c-.39.455-.325 1.1375.13 1.5167l-.0108-.0108c.195.1516.4333.2383.6825.2275l-.0108-.0011c.3141 0 .6175-.1517.8341-.39l5.4167-6.5v-.0108c.325-.4009.3358-.975 0-1.3759z"/></g></svg>