<svg fill="none" height="26" viewBox="0 0 26 26" width="26" xmlns="http://www.w3.org/2000/svg"><g fill="#151414"><path d="m21.1689 5.50293c-2.1992-2.18833-5.1784-3.39083-8.2659-3.3475-5.99082-.02167-10.85498 4.82083-10.86582 10.80087-.02166 5.98 4.82084 10.8441 10.80082 10.855 1.2675.0108 2.3942-.8234 2.73-2.0584v-.0108c.2058-.8775-.0217-1.8092-.6283-2.47l-.0109-.0108c-.2058-.2275-.1841-.5742.0434-.7692.0866-.0867.2166-.1408.3466-.1408h1.7875l-.0108-.0109c3.4883.0109 6.3917-2.665 6.6734-6.1425h-.0109c.0759-2.53497-.8883-4.98331-2.665-6.78164zm-3.9651 10.74667h-1.7875c-1.495-.0108-2.7083 1.1917-2.7191 2.6758-.0109.6609.2383 1.3109.6825 1.8092.13.13.1841.3358.1191.5308-.0541.2275-.3033.3684-.6391.39-4.78835-.065-8.62335-3.9975-8.55835-8.7858 0-.3683.02167-.7367.07583-1.0942h-.01083c.62833-4.23581 4.225-7.3883 8.49335-7.47497h.0866v-.01083c2.47-.0325 4.8534.93166 6.5976 2.68666 1.365 1.365 2.1016 3.22834 2.0475 5.15664v-.0108c-.2384 2.2858-2.1667 4.0408-4.4634 4.0625z"/><path d="m13 5.41797c-.431 0-.8443.1712-1.149.47595-.3048.30475-.476.71807-.476 1.14905s.1712.8443.476 1.14905c.3047.30475.718.47595 1.149.47595s.8443-.1712 1.149-.47595c.3048-.30475.476-.71807.476-1.14905s-.1712-.8443-.476-1.14905c-.3047-.30475-.718-.47595-1.149-.47595z"/><path d="m16.5211 7.79987h-.0108c-.78.44416-1.0508 1.44083-.5958 2.21003.4441.7691 1.4408 1.04 2.21.585.7691-.455 1.04-1.4517.585-2.22087l-.0109-.01083c-.455-.78-1.4516-1.05083-2.2208-.60667-.0108 0-.0108 0-.0108 0z"/><path d="m9.47905 7.79923c-.78-.455-1.77667-.18416-2.22083.59584-.455.76916-.18417 1.76583.59583 2.21003.76917.4441 1.76583.1733 2.20995-.5959v-.0108c.4442-.78.1734-1.77667-.59578-2.22083-.01084-.01084-.01084-.01084-.01084-.01084z"/><path d="m6.67285 12.1978v-.0108c-.7475.4983-.9425 1.5058-.44417 2.2533.49833.7367 1.50583.9317 2.25333.4333.73667-.5091.93167-1.5166.43334-2.2641-.01084-.0109-.01084-.0109-.01084-.0109-.49833-.7475-1.50583-.9425-2.2425-.4441-.01083 0-.01083 0-.02166 0z"/></g></svg>